<svg xmlns="http://www.w3.org/2000/svg" version="1.1" xmlns:xlink="http://www.w3.org/1999/xlink" xmlns:svgjs="http://svgjs.dev/svgjs" width="2000" height="1790" viewBox="0 0 2000 1790"><g transform="matrix(1,0,0,1,-1.194033690398328,-2.8870967741935374)"><svg viewBox="0 0 277 248" data-background-color="#ffffff" preserveAspectRatio="xMidYMid meet" height="1790" width="2000" xmlns="http://www.w3.org/2000/svg" xmlns:xlink="http://www.w3.org/1999/xlink"><g id="tight-bounds" transform="matrix(1,0,0,1,0.16537366612016058,0.4000000000000057)"><svg viewBox="0 0 276.6692526677597 247.2" height="247.2" width="276.6692526677597"><g><svg viewBox="0 0 395.52 353.39143420252367" height="247.2" width="276.6692526677597"><g transform="matrix(1,0,0,1,0,262.94065093734594)"><svg viewBox="0 0 395.52 90.45078326517772" height="90.45078326517772" width="395.52"><g id="textblocktransform"><svg viewBox="0 0 395.52 90.45078326517772" height="90.45078326517772" width="395.52" id="textblock"><g><svg viewBox="0 0 395.52 90.45078326517772" height="90.45078326517772" width="395.52"><g transform="matrix(1,0,0,1,0,0)"><svg width="395.52" viewBox="4 -35.01 155.21 35.5" height="90.45078326517772" data-palette-color="#5c5470"><path d="M23.71-32.01L7.15-32.01 7.15-18.99 20.56-18.99 20.56-15.99 7.15-15.99 7.15 0 4 0 4-35.01 23.71-35.01 23.71-32.01ZM31.96-31.01L28.46-31.01 28.46-35.01 31.96-35.01 31.96-31.01ZM31.71 0L28.71 0 28.71-25 31.71-25 31.71 0ZM42.72 0L39.72 0 39.72-35.01 42.72-35.01 42.72 0ZM79.12 0L76.12 0 76.12-18.31Q76.12-19.21 75.77-20.01 75.43-20.8 74.85-21.39 74.26-21.97 73.47-22.31 72.67-22.66 71.77-22.66L71.77-22.66 70.28-22.66Q69.38-22.66 68.58-22.31 67.79-21.97 67.19-21.39 66.59-20.8 66.25-20.01 65.91-19.21 65.91-18.31L65.91-18.31 65.91 0 62.93 0 62.93-18.31Q62.93-19.21 62.59-20.01 62.25-20.8 61.65-21.39 61.05-21.97 60.26-22.31 59.47-22.66 58.56-22.66L58.56-22.66 57.07-22.66Q56.17-22.66 55.38-22.31 54.58-21.97 54-21.39 53.41-20.8 53.07-20.01 52.73-19.21 52.73-18.31L52.73-18.31 52.73 0 49.72 0 49.72-25 50.72-25 52.36-22.46Q53.39-23.85 54.94-24.67 56.49-25.49 58.32-25.49L58.32-25.49 58.56-25.49Q60.69-25.49 62.39-24.44 64.1-23.39 65.03-21.66L65.03-21.66Q65.5-22.51 66.18-23.22 66.86-23.93 67.69-24.43 68.52-24.93 69.5-25.21 70.48-25.49 71.53-25.49L71.53-25.49 71.77-25.49Q73.28-25.49 74.63-24.91 75.97-24.34 76.97-23.34 77.97-22.34 78.54-21 79.12-19.65 79.12-18.14L79.12-18.14 79.12 0ZM105.82-8.59L105.82-8.59Q105.82-6.81 105.15-5.25 104.48-3.69 103.31-2.51 102.14-1.34 100.56-0.67 98.99 0 97.21 0L97.21 0 86.12 0 86.12-35.01 97.21-35.01Q98.99-35.01 100.56-34.34 102.14-33.67 103.31-32.5 104.48-31.32 105.15-29.75 105.82-28.17 105.82-26.39L105.82-26.39 105.82-8.59ZM102.68-8.59L102.68-26.39Q102.68-27.56 102.24-28.58 101.8-29.59 101.03-30.36 100.26-31.13 99.25-31.57 98.23-32.01 97.06-32.01L97.06-32.01 89.27-32.01 89.27-3 97.06-3Q98.23-3 99.25-3.44 100.26-3.88 101.03-4.64 101.8-5.4 102.24-6.41 102.68-7.42 102.68-8.59L102.68-8.59ZM115.56-31.01L112.07-31.01 112.07-35.01 115.56-35.01 115.56-31.01ZM115.32 0L112.32 0 112.32-25 115.32-25 115.32 0ZM139.02-25L130.16 0 128.67 0 119.81-25 122.81-25 129.33-6.05 129.43-4.76 129.53-6.05 136.02-25 139.02-25ZM159.21-6.86L159.21-6.86Q159.21-5.35 158.64-4 158.06-2.66 157.06-1.66 156.06-0.66 154.72-0.09 153.38 0.49 151.86 0.49L151.86 0.49 149.86 0.49Q148.35 0.49 147-0.09 145.66-0.66 144.66-1.66 143.66-2.66 143.09-4 142.51-5.35 142.51-6.86L142.51-6.86 142.51-18.14Q142.51-19.65 143.09-21 143.66-22.34 144.66-23.34 145.66-24.34 147-24.91 148.35-25.49 149.86-25.49L149.86-25.49 151.86-25.49Q153.38-25.49 154.72-24.91 156.06-24.34 157.06-23.34 158.06-22.34 158.64-21 159.21-19.65 159.21-18.14L159.21-18.14 159.21-12.26 145.51-12.26 145.51-6.69Q145.51-5.79 145.86-4.99 146.2-4.2 146.78-3.61 147.37-3.03 148.16-2.69 148.96-2.34 149.86-2.34L149.86-2.34 151.86-2.34Q152.77-2.34 153.56-2.69 154.35-3.03 154.94-3.61 155.52-4.2 155.87-4.99 156.21-5.79 156.21-6.69L156.21-6.69 156.21-8.35 159.21-7.86 159.21-6.86ZM156.21-14.6L156.21-18.31Q156.21-19.21 155.87-20.01 155.52-20.8 154.94-21.39 154.35-21.97 153.56-22.31 152.77-22.66 151.86-22.66L151.86-22.66 149.86-22.66Q148.96-22.66 148.16-22.31 147.37-21.97 146.78-21.39 146.2-20.8 145.86-20.01 145.51-19.21 145.51-18.31L145.51-18.31 145.51-14.6 156.21-14.6Z" opacity="1" transform="matrix(1,0,0,1,0,0)" fill="#ffffff" class="wordmark-text-0" data-fill-palette-color="primary" id="text-0"></path></svg></g></svg></g></svg></g></svg></g><g transform="matrix(1,0,0,1,87.64293364143711,0)"><svg viewBox="0 0 220.23413271712576 220.23413271712576" height="220.23413271712576" width="220.23413271712576"><g><svg></svg></g><g id="icon-0"><svg viewBox="0 0 220.23413271712576 220.23413271712576" height="220.23413271712576" width="220.23413271712576"><g><path d="M0 110.117c0-60.816 49.301-110.117 110.117-110.117 60.816 0 110.117 49.301 110.117 110.117 0 60.816-49.301 110.117-110.117 110.117-60.816 0-110.117-49.301-110.117-110.117zM110.117 212.077c56.311 0 101.96-45.649 101.96-101.96 0-56.311-45.649-101.96-101.96-101.96-56.311 0-101.96 45.649-101.96 101.96 0 56.311 45.649 101.96 101.96 101.96z" data-fill-palette-color="tertiary" fill="#ffffff" stroke="transparent"></path></g><g transform="matrix(1,0,0,1,46.39252273456831,52.92823601073307)"><svg viewBox="0 0 127.44908724798914 114.37766069565961" height="114.37766069565961" width="127.44908724798914"><g><svg xmlns="http://www.w3.org/2000/svg" xmlns:xlink="http://www.w3.org/1999/xlink" version="1.1" x="0" y="0" viewBox="5.102815162292071 6.158235127356566 19.79720473907165 17.766764872643435" enable-background="new 0 0 30 30.042" xml:space="preserve" height="114.37766069565961" width="127.44908724798914" class="icon-dxe-0" data-fill-palette-color="accent" id="dxe-0"><g display="none" fill="#b9b4c7" data-fill-palette-color="accent"><path display="inline" d="M20.591 22.399L20.581 22.358 17.746 13.025C17.743 13.014 17.738 13.003 17.734 12.993A0.4 0.4 0 0 1 17.7 12.829C17.708 12.729 17.737 12.632 17.737 12.632 17.894 12.223 18.63 11.408 18.924 10.223L18.93 10.189 18.939 10.116 18.942 10.08C18.942 9.725 18.845 9.399 18.752 9.081 18.68 8.832 18.611 8.598 18.611 8.414 18.611 8.331 18.621 8.226 18.638 8.11L18.643 8.077C18.705 7.688 18.837 7.185 18.916 6.916L19.032 6.529A0.289 0.289 0 0 0 18.479 6.364L18.363 6.752C18.341 6.829 18.2 7.31 18.11 7.778L17.044 8.055C16.238 8.136 15.469 8.733 15.172 8.859 14.878 8.734 14.114 7.936 13.301 7.855L12.233 7.785A12 12 0 0 0 11.977 6.752L11.86 6.364A0.288 0.288 0 0 0 11.307 6.53L11.424 6.92A10 10 0 0 1 11.701 8.11C11.718 8.227 11.729 8.332 11.729 8.416 11.729 8.595 11.661 8.827 11.588 9.073 11.494 9.394 11.397 9.726 11.397 10.082 11.397 10.094 11.397 10.106 11.399 10.118L11.408 10.191 11.414 10.225C11.711 11.418 12.444 12.23 12.594 12.614A1 1 0 0 1 12.636 12.842C12.624 12.932 12.596 13.016 12.595 13.018L9.433 22.326 9.423 22.365 9.375 22.615A0.29 0.29 0 0 0 9.544 22.935L9.77 23.03C9.855 23.065 12.105 23.925 15.17 23.925 17.989 23.925 20.163 23.064 20.247 23.027L20.457 22.935A0.29 0.29 0 0 0 20.625 22.626zM20.013 22.499C19.934 22.534 17.869 23.349 15.17 23.349 12.221 23.349 10.077 22.535 9.997 22.499L9.987 22.495 13.142 13.204C13.147 13.19 13.19 13.063 13.21 12.914 13.232 12.741 13.168 12.512 13.141 12.426 12.988 12.031 12.27 11.259 11.98 10.102L11.975 10.065C11.978 9.796 12.062 9.511 12.142 9.235 12.226 8.948 12.306 8.677 12.306 8.415V8.368L13.252 8.43C14.034 8.509 14.755 9.304 14.995 9.412L15.052 9.437A0.3 0.3 0 0 0 15.288 9.437L15.345 9.412C15.589 9.303 16.316 8.707 17.093 8.63L18.032 8.362 18.031 8.414C18.031 8.682 18.112 8.955 18.197 9.247 18.277 9.517 18.359 9.797 18.363 10.064L18.358 10.101C18.023 11.44 17.286 12.194 17.192 12.439 17.186 12.456 17.137 12.609 17.124 12.783A1 1 0 0 0 17.196 13.205L20.019 22.494z" fill="#ffffff" data-fill-palette-color="accent"></path></g><g display="none" fill="#b9b4c7" data-fill-palette-color="accent"><path display="inline" d="M5.507 19.29C5.883 19.583 6.165 19.62 6.293 19.62H24.168V19.608C24.275 19.594 24.411 19.559 24.496 19.475L24.522 19.444C25.278 18.577 24.561 12.251 24.554 12.198L24.536 12.132C24.521 12.096 24.206 11.347 23.152 11.347 22.829 11.347 22.465 11.42 22.073 11.565A5.6 5.6 0 0 1 20.135 11.896C18.974 11.896 17.965 11.569 17.436 11.02 17.079 10.65 16.67 10.463 16.224 10.463 15.579 10.463 15.052 10.875 14.796 11.12 14.643 11.266 13.78 11.882 12.453 12.785A0.3 0.3 0 0 0 12.366 12.842L12.363 12.848A237 237 0 0 1 9.738 14.603C9.712 14.615 9.61 14.632 9.291 14.632L8.896 14.63C6.919 14.63 5.629 16.459 5.166 18.026 5.077 18.28 5.156 19.022 5.507 19.29M24.329 17.864H5.798C6.435 16.426 7.659 15.217 8.896 15.217L9.291 15.219C9.674 15.219 9.896 15.199 10.053 15.098 10.469 14.823 10.849 14.573 11.2 14.339L12.202 15.342A0.25 0.25 0 0 0 12.379 15.414 0.25 0.25 0 0 0 12.556 15.342 0.25 0.25 0 0 0 12.556 14.987L11.626 14.056 12.584 13.415 13.574 14.404A0.25 0.25 0 1 0 13.928 14.05L13.008 13.13C13.316 12.922 13.581 12.741 13.809 12.584L14.808 13.582A0.25 0.25 0 1 0 15.163 13.227L14.228 12.293C14.577 12.049 14.803 11.884 14.953 11.771L15.958 12.775A0.25 0.25 0 0 0 16.313 12.775 0.25 0.25 0 0 0 16.313 12.421L15.34 11.448C15.95 10.927 16.529 10.925 17.015 11.429 17.653 12.089 18.819 12.484 20.136 12.484 20.89 12.484 21.631 12.358 22.278 12.117 22.604 11.996 22.898 11.934 23.153 11.934 23.712 11.934 23.924 12.227 23.98 12.327 24.22 14.065 24.342 16.766 24.329 17.864M5.67 18.366H24.311C24.286 18.743 24.236 18.995 24.158 19.069L24.131 19.094S24.086 19.119 24.012 19.119H6.292C5.931 19.088 5.769 18.82 5.767 18.818 5.702 18.741 5.668 18.547 5.67 18.366" fill="#ffffff" data-fill-palette-color="accent"></path></g><g display="none" fill="#b9b4c7" data-fill-palette-color="accent"><g display="inline" fill="#b9b4c7" data-fill-palette-color="accent"><path d="M8.904 18.313L8.801 18.368 8.923 18.337C8.917 18.329 8.912 18.321 8.905 18.316z" fill="#ffffff" data-fill-palette-color="accent"></path><path d="M21.911 15.042C21.911 11.231 18.81 8.131 15 8.131S8.089 11.231 8.089 15.04C8.089 16.178 8.374 17.309 8.912 18.309L8.904 18.313 8.906 18.315 8.924 18.336C8.927 18.34 8.932 18.344 8.934 18.348A6.92 6.92 0 0 0 15 21.952 6.93 6.93 0 0 0 20.996 18.477 6.9 6.9 0 0 0 21.911 15.042M14.999 8.596H15.007C15.973 8.596 16.904 8.808 17.778 9.225 17.82 9.245 17.847 9.287 17.849 9.333S17.827 9.423 17.786 9.446C16.847 9.985 16.076 10.688 15.557 11.481 14.89 12.498 14.609 13.656 14.723 14.926A0.12 0.12 0 0 1 14.66 15.045 6.3 6.3 0 0 1 12.333 15.805H12.32C12.261 15.805 12.198 15.769 12.183 15.715A6.4 6.4 0 0 1 11.965 14.057C11.965 11.877 13.38 10.161 14.91 8.632A0.13 0.13 0 0 1 14.999 8.596M8.554 15.034A6.455 6.455 0 0 1 13.778 8.712 0.126 0.126 0 0 1 13.893 8.921C12.648 10.24 11.375 11.88 11.375 14.058 11.375 14.611 11.44 15.163 11.569 15.698 11.579 15.737 11.569 15.775 11.546 15.806A0.13 0.13 0 0 1 11.447 15.853H11.445A6.4 6.4 0 0 1 8.622 15.145 0.13 0.13 0 0 1 8.554 15.034M9.148 17.745A6.4 6.4 0 0 1 8.627 16.016 0.12 0.12 0 0 1 8.674 15.898 0.13 0.13 0 0 1 8.8 15.882 7.1 7.1 0 0 0 11.548 16.445H11.549A7 7 0 0 0 12.466 16.386 6.9 6.9 0 0 0 14.984 15.541 0.13 0.13 0 0 1 15.111 15.545 6.4 6.4 0 0 1 16.852 17.104C16.892 17.158 16.885 17.234 16.834 17.277A6.38 6.38 0 0 1 9.193 17.797 0.13 0.13 0 0 1 9.148 17.745M18.106 20.686A6.43 6.43 0 0 1 10.041 19.155 0.125 0.125 0 0 1 10.035 19.003 0.13 0.13 0 0 1 10.181 18.958 6.97 6.97 0 0 0 17.142 17.792 0.14 0.14 0 0 1 17.245 17.763 0.13 0.13 0 0 1 17.332 17.826C17.815 18.664 18.105 19.613 18.171 20.568A0.13 0.13 0 0 1 18.106 20.686M20.396 18.569A6.4 6.4 0 0 1 18.915 20.159 0.12 0.12 0 0 1 18.839 20.184 0.1 0.1 0 0 1 18.791 20.176 0.13 0.13 0 0 1 18.715 20.076 7 7 0 0 0 17.721 17.308 7.05 7.05 0 0 0 15.377 15.01 0.13 0.13 0 0 1 15.316 14.915 4.83 4.83 0 0 1 15.698 12.467 0.123 0.123 0 0 1 15.848 12.398 6.43 6.43 0 0 1 18.733 14.247C19.802 15.442 20.417 16.992 20.417 18.5A0.13 0.13 0 0 1 20.396 18.569M20.936 17.311A0.12 0.12 0 0 1 20.823 17.209 7 7 0 0 0 19.174 13.853 7.04 7.04 0 0 0 16.195 11.89 0.13 0.13 0 0 1 16.116 11.81 0.12 0.12 0 0 1 16.132 11.7C16.687 10.894 17.493 10.228 18.528 9.724A0.13 0.13 0 0 1 18.655 9.733 6.45 6.45 0 0 1 21.066 17.229 0.13 0.13 0 0 1 20.947 17.311z" fill="#ffffff" data-fill-palette-color="accent"></path></g></g><g display="none" fill="#b9b4c7" data-fill-palette-color="accent"><path display="inline" d="M24.824 15.037L20.172 10.458A0.3 0.3 0 0 0 20.074 10.399L18.35 9.833A0.25 0.25 0 0 0 18.029 10.012 5 5 0 0 1 17.813 10.636L15.18 9.601 15.184 8.817C15.199 8.777 15.247 8.734 15.392 8.631 15.626 8.463 15.982 8.208 15.982 7.638A1.049 1.049 0 0 0 13.885 7.638C13.885 7.774 13.995 7.886 14.132 7.886A0.25 0.25 0 0 0 14.379 7.638 0.555 0.555 0 0 1 15.488 7.638C15.488 7.937 15.342 8.058 15.105 8.23 14.918 8.363 14.687 8.528 14.687 8.841V9.601L12.189 10.583A5 5 0 0 1 11.971 10.005 0.25 0.25 0 0 0 11.65 9.834L9.977 10.398A0.24 0.24 0 0 0 9.882 10.457L5.178 15.056A0.25 0.25 0 0 0 5.103 15.234 0.24 0.24 0 0 0 5.172 15.412L8.538 18.841A0.23 0.23 0 0 0 8.719 18.915 0.25 0.25 0 0 0 8.899 18.837L9.941 17.745 9.93 23.243C9.93 23.309 9.956 23.374 10.004 23.419A0.24 0.24 0 0 0 10.182 23.493H19.903A0.25 0.25 0 0 0 20.154 23.243V17.763L21.185 18.839A0.26 0.26 0 0 0 21.367 18.915 0.26 0.26 0 0 0 21.549 18.837L24.831 15.389A0.25 0.25 0 0 0 24.824 15.037M14.933 10.035L17.604 11.085C17.496 11.297 17.364 11.521 17.206 11.737H12.88A5 5 0 0 1 12.408 11.028zM16.772 12.232C16.352 12.628 15.813 12.918 15.131 12.918L15.024 12.915C14.338 12.886 13.789 12.607 13.354 12.232zM21.365 18.301L20.083 16.963C20.013 16.889 19.903 16.865 19.809 16.904S19.652 17.035 19.652 17.136V22.99H10.433L10.445 17.117A0.25 0.25 0 0 0 10.288 16.885 0.245 0.245 0 0 0 10.013 16.944L8.717 18.303 5.707 15.24 10.19 10.856 11.568 10.392C11.836 11.148 12.797 13.323 15.004 13.417 17.245 13.512 18.183 11.187 18.44 10.392L19.863 10.857 24.298 15.221z" fill="#ffffff" data-fill-palette-color="accent"></path></g><g display="none" fill="#b9b4c7" data-fill-palette-color="accent"><g display="inline" fill="#b9b4c7" data-fill-palette-color="accent"><path d="M14.663 22.643L14.677 22.43H15.353C15.527 22.43 15.528 22.428 15.685 22.264L15.688 22.266C15.941 22.041 17.286 21.662 18.256 21.662H24.022A0.285 0.285 0 0 0 24.306 21.377V7.728A0.286 0.286 0 0 0 24.022 7.44H18.256C16.366 7.44 15.526 7.897 15.152 8.279L14.999 8.436 14.846 8.279C14.474 7.897 13.634 7.44 11.743 7.44H5.977A0.286 0.286 0 0 0 5.695 7.728V21.377C5.695 21.533 5.821 21.662 5.977 21.662H11.744C12.595 21.662 13.807 21.967 14.24 22.248H14.26L14.323 22.291C14.509 22.43 14.509 22.43 14.663 22.43zM15.38 9.125L15.397 9.085C15.417 9.038 15.906 7.939 18.243 7.938H23.738V21.167H18.243C16.88 21.167 15.698 21.726 15.686 21.731L15.381 21.877zM14.366 21.731C14.354 21.725 13.128 21.167 11.767 21.167H6.272V7.938H6.485S8.677 7.932 10.242 7.932C11.166 7.932 11.667 7.934 11.774 7.938 14.259 8.023 14.626 8.996 14.659 9.107L14.669 9.169V21.872z" fill="#ffffff" data-fill-palette-color="accent"></path><rect x="10.098" y="11.911" width="2.36" height="0.487" fill="#ffffff" data-fill-palette-color="accent"></rect><rect x="17.536" y="11.911" width="4.285" height="0.487" fill="#ffffff" data-fill-palette-color="accent"></rect><rect x="8.172" y="14.323" width="4.286" height="0.487" fill="#ffffff" data-fill-palette-color="accent"></rect><rect x="8.172" y="16.733" width="4.286" height="0.488" fill="#ffffff" data-fill-palette-color="accent"></rect><rect x="17.536" y="14.323" width="4.285" height="0.487" fill="#ffffff" data-fill-palette-color="accent"></rect><rect x="17.536" y="16.733" width="4.285" height="0.488" fill="#ffffff" data-fill-palette-color="accent"></rect></g></g><g display="none" fill="#b9b4c7" data-fill-palette-color="accent"><g display="inline" fill="#b9b4c7" data-fill-palette-color="accent"><path d="M15 21.991A6.956 6.956 0 0 1 8.051 15.042C8.051 13.017 8.921 11.192 10.307 9.92L10.305 9.918C10.318 9.906 10.332 9.896 10.346 9.885A6.92 6.92 0 0 1 15 8.092C18.832 8.092 21.949 11.21 21.949 15.042A6.956 6.956 0 0 1 15 21.991M9.704 11.368A6.4 6.4 0 0 0 8.553 15.042 6.456 6.456 0 0 0 15.001 21.489 6.455 6.455 0 0 0 21.449 15.042 6.455 6.455 0 0 0 15.001 8.594 6.4 6.4 0 0 0 11.399 9.696H11.503C11.597 9.696 11.68 9.696 11.737 9.693 11.996 9.678 12.199 9.797 12.378 9.903 12.514 9.983 12.633 10.053 12.729 10.04A0.5 0.5 0 0 0 12.888 9.956C12.989 9.888 13.115 9.804 13.28 9.797 13.498 9.789 13.69 9.866 13.876 9.941 14.011 9.995 14.139 10.047 14.27 10.063 14.501 10.091 14.776 10.035 15.042 9.98 15.493 9.888 16.004 9.784 16.393 10.097A0.86 0.86 0 0 1 16.674 10.655 0.65 0.65 0 0 1 16.639 10.937 0.84 0.84 0 0 1 17.17 11.109C17.328 11.226 17.359 11.411 17.381 11.546L17.384 11.561A0.3 0.3 0 0 1 17.605 11.564C17.903 11.684 18.165 11.985 18.304 12.366 18.435 12.721 18.43 13.077 18.292 13.342 18.176 13.565 17.936 13.599 17.742 13.627A1 1 0 0 0 17.492 13.681L17.328 13.742C17.175 13.797 17.031 13.848 16.918 13.943 16.748 14.085 16.523 14.318 16.424 14.617 16.428 14.617 16.436 14.654 16.442 14.679 16.465 14.783 16.509 14.977 16.368 15.134L16.344 15.163C16.256 15.27 16.049 15.52 15.809 15.37A1.5 1.5 0 0 0 15.555 15.282 1.6 1.6 0 0 1 15.169 15.134C15.08 15.077 15.039 15.05 14.941 15.181 14.965 15.29 15.098 15.544 15.253 15.636 15.339 15.677 15.427 15.726 15.507 15.793 15.632 15.899 15.7 16.038 15.759 16.16 15.796 16.235 15.845 16.339 15.882 16.352A1 1 0 0 1 16.027 16.243C16.078 16.076 16.125 15.932 16.263 15.864 16.723 15.637 17.24 15.812 17.588 15.965 17.876 16.091 18.13 16.336 18.268 16.618 18.328 16.743 18.318 16.867 18.311 16.958L18.307 17.027C18.331 17.046 18.386 17.058 18.434 17.071 18.534 17.094 18.683 17.13 18.756 17.279 19.032 17.838 18.579 18.529 18.434 18.726A0.6 0.6 0 0 1 18.146 18.919C18.114 18.933 18.065 18.95 18.053 18.962 18.048 18.972 18.043 19.023 18.039 19.056A0.7 0.7 0 0 1 17.966 19.339C17.741 19.751 17.342 20.013 16.99 20.245L16.778 20.388A0.3 0.3 0 0 1 16.717 20.433C16.667 20.458 16.613 20.492 16.554 20.529 16.261 20.705 15.771 21.004 15.493 20.599 15.253 20.251 15.554 19.902 15.819 19.593 16.071 19.3 16.332 18.997 16.25 18.712A1 1 0 0 0 16.119 18.64C15.996 18.576 15.843 18.494 15.749 18.335 15.51 17.929 15.415 17.466 15.489 17.06A0.6 0.6 0 0 1 15.626 16.785C15.457 16.687 15.374 16.518 15.307 16.379 15.267 16.297 15.226 16.212 15.182 16.174A1 1 0 0 0 14.927 16.039L14.844 16.003A2 2 0 0 0 14.509 15.896C14.292 15.838 14.047 15.774 13.847 15.608 13.537 15.35 13.373 14.987 13.228 14.668 13.175 14.551 13.124 14.437 13.065 14.33 13.028 14.261 12.988 14.194 12.949 14.128 12.824 13.917 12.695 13.698 12.645 13.446 12.601 13.219 12.645 13.004 12.683 12.815 12.713 12.667 12.742 12.526 12.719 12.419A1.5 1.5 0 0 0 12.273 11.628C12.124 11.494 11.947 11.412 11.828 11.427 11.796 11.431 11.723 11.515 11.679 11.566A2 2 0 0 1 11.541 11.712C11.484 11.762 11.422 11.884 11.368 11.992 11.269 12.183 11.167 12.382 10.974 12.444A0.38 0.38 0 0 1 10.678 12.417C10.473 12.311 10.374 12.04 10.246 11.638L10.204 11.508C10.106 11.553 9.988 11.581 9.873 11.5L9.847 11.48C9.808 11.453 9.754 11.417 9.704 11.368M16.143 16.968L16.141 16.97C16.086 17.024 15.995 17.114 15.982 17.153 15.931 17.434 16.005 17.78 16.181 18.079 16.203 18.116 16.283 18.157 16.353 18.194 16.488 18.264 16.672 18.362 16.733 18.573 16.888 19.118 16.491 19.581 16.201 19.919 16.107 20.028 15.96 20.2 15.921 20.292 16.02 20.265 16.201 20.155 16.295 20.099 16.352 20.064 16.406 20.031 16.455 20.003L16.476 19.987C16.554 19.934 16.634 19.88 16.715 19.827 17.033 19.618 17.362 19.399 17.527 19.098 17.534 19.084 17.539 19.035 17.543 19.002A0.65 0.65 0 0 1 17.66 18.65 0.65 0.65 0 0 1 17.966 18.451C17.992 18.439 18.031 18.426 18.043 18.416 18.232 18.154 18.392 17.795 18.33 17.559 18.327 17.559 18.323 17.559 18.319 17.557 18.204 17.53 18.009 17.485 17.884 17.299 17.792 17.164 17.804 17.015 17.811 16.916A0.4 0.4 0 0 0 17.814 16.827 0.9 0.9 0 0 0 17.388 16.423C17.147 16.318 16.804 16.194 16.539 16.29 16.526 16.322 16.512 16.37 16.501 16.406 16.438 16.612 16.361 16.867 16.143 16.968M11.854 10.923C12.099 10.923 12.375 11.043 12.609 11.254 12.903 11.519 13.122 11.904 13.21 12.312 13.255 12.522 13.214 12.721 13.175 12.914 13.143 13.072 13.113 13.221 13.138 13.349 13.171 13.516 13.273 13.688 13.381 13.871 13.423 13.943 13.466 14.016 13.506 14.089 13.569 14.206 13.627 14.332 13.684 14.459 13.819 14.756 13.946 15.037 14.167 15.22A0.9 0.9 0 0 0 14.472 15.365C14.465 15.342 14.458 15.32 14.453 15.299 14.418 15.153 14.432 15.033 14.493 14.944 14.837 14.434 15.234 14.58 15.439 14.711 15.479 14.737 15.609 14.774 15.696 14.8 15.779 14.824 15.859 14.847 15.931 14.875 15.941 14.863 15.951 14.852 15.957 14.843 15.959 14.842 15.961 14.839 15.962 14.836L15.952 14.79C15.933 14.703 15.906 14.583 15.948 14.457 16.086 14.047 16.376 13.742 16.597 13.558 16.779 13.407 16.982 13.334 17.16 13.27 17.21 13.252 17.259 13.235 17.305 13.217 17.431 13.165 17.559 13.146 17.673 13.131 17.733 13.122 17.82 13.11 17.857 13.095 17.92 12.957 17.913 12.753 17.835 12.541A1 1 0 0 0 17.502 12.075 0.33 0.33 0 0 1 17.183 12.113C16.953 12.013 16.912 11.773 16.889 11.63 16.881 11.586 16.87 11.518 16.859 11.498A0.4 0.4 0 0 0 16.704 11.44C16.709 11.489 16.725 11.563 16.738 11.617 16.788 11.832 16.862 12.156 16.621 12.377 16.504 12.484 16.327 12.501 16.145 12.423 15.934 12.331 15.229 11.985 15.099 11.375 15.045 11.122 15.202 10.884 15.37 10.77 15.578 10.629 15.82 10.687 15.998 10.729 16.052 10.742 16.13 10.76 16.171 10.762A0.14 0.14 0 0 0 16.177 10.699 0.37 0.37 0 0 0 16.08 10.487C15.875 10.321 15.537 10.39 15.145 10.471 14.84 10.533 14.524 10.597 14.213 10.56 14.017 10.536 13.844 10.466 13.692 10.405 13.543 10.345 13.411 10.291 13.304 10.297 13.281 10.298 13.212 10.345 13.171 10.372A0.85 0.85 0 0 1 12.792 10.538C12.525 10.57 12.304 10.44 12.127 10.335 11.993 10.255 11.875 10.189 11.773 10.193A5 5 0 0 1 11.506 10.197C11.314 10.196 10.808 10.196 10.66 10.28 10.403 10.515 10.165 10.77 9.949 11.043L9.994 11.052C10.012 11.045 10.032 11.031 10.053 11.021A0.1 0.1 0 0 0 10.042 10.995L10.063 11.015C10.299 10.884 10.467 10.899 10.563 11.061 10.624 11.162 10.671 11.311 10.727 11.485 10.761 11.591 10.815 11.761 10.866 11.874L10.925 11.762C11 11.616 11.085 11.45 11.21 11.338 11.243 11.31 11.273 11.273 11.304 11.238 11.406 11.12 11.546 10.958 11.769 10.929zM15.676 11.181A0.1 0.1 0 0 0 15.647 11.185C15.614 11.207 15.587 11.253 15.586 11.271 15.636 11.502 15.907 11.76 16.283 11.935A2 2 0 0 0 16.245 11.728C16.214 11.589 16.174 11.415 16.217 11.26A1.2 1.2 0 0 1 15.878 11.216C15.823 11.204 15.728 11.181 15.676 11.181" fill="#ffffff" data-fill-palette-color="accent"></path></g></g><g display="none" fill="#b9b4c7" data-fill-palette-color="accent"><g display="inline" fill="#b9b4c7" data-fill-palette-color="accent"><path d="M8.74 18.516H21.261A0.64 0.64 0 0 0 21.903 17.875V10.43A0.644 0.644 0 0 0 21.26 9.788H8.74A0.643 0.643 0 0 0 8.097 10.43V17.875A0.643 0.643 0 0 0 8.74 18.516M8.587 10.43C8.587 10.346 8.655 10.277 8.74 10.277H21.261C21.345 10.277 21.413 10.345 21.413 10.43V17.875A0.15 0.15 0 0 1 21.261 18.027H8.74A0.15 0.15 0 0 1 8.587 17.875z" fill="#ffffff" data-fill-palette-color="accent"></path><path d="M24.661 19.454A0.26 0.26 0 0 0 24.479 19.38H23.398A0.7 0.7 0 0 0 23.418 19.22V9.085A0.67 0.67 0 0 0 22.747 8.415H7.253C6.884 8.415 6.582 8.715 6.582 9.085V19.219C6.582 19.274 6.589 19.326 6.602 19.379H5.521A0.256 0.256 0 0 0 5.265 19.633C5.265 20.451 6.536 21.668 8.219 21.668H21.782C23.466 21.668 24.736 20.451 24.736 19.635A0.26 0.26 0 0 0 24.661 19.454M7.093 9.085A0.16 0.16 0 0 1 7.253 8.925H22.747A0.16 0.16 0 0 1 22.906 9.085V19.219A0.16 0.16 0 0 1 22.747 19.379H7.253A0.16 0.16 0 0 1 7.093 19.219zM16.875 19.889H24.107C23.806 20.229 22.944 21.157 21.781 21.157H8.219C7.057 21.157 6.195 20.229 5.893 19.889z" fill="#ffffff" data-fill-palette-color="accent"></path></g></g><g display="none" fill="#b9b4c7" data-fill-palette-color="accent"><path display="inline" d="M24.028 16.476L20.902 13.288V9.188A0.23 0.23 0 0 0 20.674 8.961H18.192A0.227 0.227 0 0 0 17.965 9.188V10.293L15.161 7.434A0.234 0.234 0 0 0 14.837 7.434L5.97 16.477A0.228 0.228 0 0 0 6.132 16.863H8.033V22.49C8.033 22.615 8.135 22.717 8.26 22.717H21.738A0.227 0.227 0 0 0 21.965 22.49V16.863H23.866A0.23 0.23 0 0 0 24.074 16.724 0.22 0.22 0 0 0 24.028 16.476M20.448 9.415V12.783L18.42 10.754V9.415zM16.015 22.26H13.986V18.651H16.015zM16.468 22.26V18.424A0.227 0.227 0 0 0 16.241 18.197H13.759A0.227 0.227 0 0 0 13.532 18.424V22.26H8.488V16.862H21.512V22.26zM21.845 16.409H6.673L15 7.916 18.03 11.006 18.032 11.007 20.459 13.434C20.469 13.473 20.485 13.509 20.513 13.538L23.327 16.408z" fill="#ffffff" data-fill-palette-color="accent"></path></g><g display="none" fill="#b9b4c7" data-fill-palette-color="accent"><path display="inline" d="M22.102 19.545L18.793 16.236A0.24 0.24 0 0 0 18.608 16.163 0.25 0.25 0 0 0 18.427 16.247C17.917 16.822 17.346 17.457 17.107 17.711A13 13 0 0 1 15.597 16.858 179 179 0 0 0 18.403 13.377 2.738 2.738 0 0 0 21.96 10.766 2.6 2.6 0 0 0 21.783 9.788 0.252 0.252 0 0 0 21.37 9.704L20.295 10.797A0.79 0.79 0 0 1 19.232 10.781 0.77 0.77 0 0 1 19.181 9.73L20.281 8.615A0.25 0.25 0 0 0 20.347 8.386 0.25 0.25 0 0 0 20.193 8.204 2.738 2.738 0 0 0 16.608 11.568C15.833 12.204 14.517 13.292 13.148 14.461 12.661 13.695 12.507 13.088 12.463 12.852L13.778 11.484A0.25 0.25 0 0 0 13.775 11.133L10.636 7.993A0.25 0.25 0 0 0 10.367 7.937C7.831 8.93 7.825 11.483 7.825 11.509S7.829 11.563 7.839 11.589C8.525 13.549 9.547 15.214 10.691 16.604 9.238 17.91 8.106 19.025 8.038 19.378L8.034 19.409C7.975 20.384 8.308 20.796 8.662 21.192 9.088 21.669 9.591 21.997 10.588 22.047H10.601C10.615 22.047 10.629 22.047 10.643 22.045 11.051 21.977 12.187 20.815 13.474 19.354 15.837 21.26 18.037 22.157 18.477 22.157L18.506 22.155C20.957 21.862 22.095 19.926 22.141 19.844A0.25 0.25 0 0 0 22.102 19.545M17.063 11.849A0.25 0.25 0 0 0 17.138 11.565 2.237 2.237 0 0 1 19.628 8.567L18.815 9.392A1.274 1.274 0 0 0 18.883 11.142 1.3 1.3 0 0 0 20.645 11.16L21.428 10.364C21.449 10.49 21.46 10.621 21.46 10.766A2.237 2.237 0 0 1 18.409 12.846 0.254 0.254 0 0 0 18.115 12.931C17.78 13.378 16.553 14.912 15.179 16.566 14.398 15.993 13.839 15.412 13.44 14.879A229 229 0 0 1 17.063 11.849M10.577 21.549C9.729 21.502 9.342 21.203 9.036 20.861 8.781 20.576 8.486 20.285 8.533 19.468 8.639 19.193 9.612 18.247 11.015 16.99 11.683 17.761 12.385 18.438 13.081 19.03 11.904 20.379 10.899 21.44 10.577 21.549M18.468 21.657C17.869 21.591 10.846 18.596 8.328 11.469 8.339 11.178 8.486 9.309 10.4 8.469L13.247 11.317 12.016 12.597A0.25 0.25 0 0 0 11.947 12.792C11.958 12.923 12.266 16.017 17.053 18.239A0.25 0.25 0 0 0 17.316 18.208C17.44 18.11 18.211 17.249 18.628 16.78L21.603 19.755C21.287 20.198 20.26 21.434 18.468 21.657" fill="#ffffff" data-fill-palette-color="accent"></path></g><g display="none" fill="#b9b4c7" data-fill-palette-color="accent"><path display="inline" d="M7.575 22.364L7.665 22.454C8.033 22.823 8.426 23.009 8.832 23.009 9.241 23.009 9.636 22.823 10.004 22.454L14.312 18.147 14.727 17.772 18.938 21.985C19.307 22.354 19.701 22.54 20.109 22.54 20.516 22.54 20.91 22.352 21.277 21.985L21.367 21.895C21.717 21.543 21.898 21.186 21.92 20.801 21.943 20.365 21.758 19.947 21.368 19.557L17.449 15.642 17.896 15.558C18.424 15.462 18.936 15.162 19.459 14.638L22.622 11.474 22.628 11.479 22.981 11.122 18.89 7.074 18.537 7.431 18.539 7.433 15.397 10.576C14.885 11.087 14.575 11.613 14.476 12.141L14.393 12.585 10.34 8.532A2.62 2.62 0 0 0 8.726 7.747C8.204 7.685 7.962 7.813 7.794 8.149V8.151H7.792C7.737 8.301 6.681 11.455 11.292 16.31L7.575 20.027C7.184 20.418 6.998 20.836 7.022 21.271 7.043 21.658 7.223 22.015 7.573 22.365M9.648 22.098C9.108 22.639 8.56 22.639 8.02 22.1L7.931 22.01C7.39 21.469 7.39 20.92 7.93 20.381L11.644 16.668C12.082 17.109 12.566 17.564 13.103 18.033L13.409 18.338zM21.011 19.913C21.551 20.452 21.551 21.001 21.011 21.54L20.922 21.63C20.662 21.89 20.411 22.023 20.154 22.038 19.864 22.052 19.582 21.919 19.292 21.63L14.696 17.064 13.772 17.951C8.222 13.248 8.062 9.809 8.191 8.702 8.205 8.642 8.217 8.585 8.225 8.539 8.295 8.13 9.083 8.071 9.983 8.887zM17.436 15.087C16.949 15.062 16.461 14.797 15.946 14.282L15.752 14.088C15.235 13.572 14.972 13.084 14.945 12.597 14.916 12.047 15.179 11.502 15.751 10.93L18.895 7.785 19.814 8.694 16.9 11.609 17.254 11.963 20.17 9.048 20.983 9.853 18.063 12.772 18.421 13.129 21.341 10.208 22.264 11.121 19.101 14.282C18.53 14.855 17.985 15.119 17.436 15.087" fill="#ffffff" data-fill-palette-color="accent"></path></g><g display="none" fill="#b9b4c7" data-fill-palette-color="accent"><g display="inline" fill="#b9b4c7" data-fill-palette-color="accent"><path d="M9.648 20.706C8.736 20.708 7.838 20.526 7.236 19.976L7.146 19.892 7.673 11.223H7.672L7.798 9.378H21.996L22.16 11.15H22.155L22.852 19.843 22.704 19.923C22.602 19.978 19.999 21.236 16.657 20.136 16.241 20.216 14.47 20.589 13.167 20.12 12.783 20.247 11.11 20.706 9.648 20.706M17.069 19.616C18.993 20.575 21.823 19.753 22.316 19.54L21.642 11.152 8.187 11.219 7.672 19.675C8.854 20.607 11.651 20.06 12.85 19.685 12.446 18.33 12.404 16.472 13.12 14.069L13.175 13.887H16.789L16.839 14.078C16.951 14.514 17.864 17.499 17.069 19.616M13.375 19.649C14.49 20.032 16.014 19.733 16.503 19.643 17.201 18.164 16.786 16.014 16.391 14.397H13.558C12.928 16.647 12.965 18.428 13.375 19.649M8.277 9.888L8.22 10.707 21.6 10.64 21.53 9.889z" fill="#ffffff" data-fill-palette-color="accent"></path></g></g><g display="none" fill="#b9b4c7" data-fill-palette-color="accent"><path display="inline" d="M17.336 21.434C18.495 20.084 21.235 13.904 21.203 13.27 21.203 11.28 20.731 9.752 19.801 8.729 18.921 7.762 17.665 7.271 16.067 7.271 15.895 7.271 15.718 7.278 15.539 7.29 15.516 6.937 15.43 6.464 15.15 6.315 14.413 5.926 12.185 6.575 11.68 7.196 11.463 7.464 11.632 7.941 11.796 8.271 10.515 8.9 9.635 9.761 9.172 10.844 8.136 13.269 9.571 15.884 9.627 15.984 10.45 17.637 15.588 21.001 16.848 21.546L17.315 23.689A0.25 0.25 0 0 0 17.613 23.88 0.25 0.25 0 0 0 17.805 23.581zM12.069 7.513C12.465 7.026 14.433 6.504 14.904 6.753 14.963 6.808 15.017 7.064 15.037 7.339 14.614 7.389 14.174 7.467 13.717 7.577A11 11 0 0 0 12.255 8.065C12.133 7.821 12.052 7.577 12.069 7.513M13.838 8.063A9.6 9.6 0 0 1 16.066 7.773C16.809 7.773 17.467 7.889 18.038 8.115 14.961 9.662 11.301 10.046 10.183 10.129 10.934 9.193 12.158 8.499 13.838 8.063M9.633 11.041C9.69 10.906 9.758 10.776 9.831 10.649 9.838 10.649 9.844 10.653 9.851 10.653H9.861C10.062 10.646 14.777 10.445 18.593 8.394 18.905 8.579 19.187 8.8 19.43 9.068 20.252 9.972 20.676 11.341 20.698 13.136 16.018 16.165 10.864 15.739 10.014 15.643 9.763 15.136 8.804 12.979 9.633 11.041M10.355 16.174C10.647 16.195 11.048 16.216 11.536 16.216 13.582 16.216 17.146 15.862 20.541 13.822 19.962 15.446 17.954 19.918 16.995 21.062 15.879 20.563 11.645 17.778 10.355 16.174" fill="#ffffff" data-fill-palette-color="accent"></path></g><g fill="#b9b4c7" data-fill-palette-color="accent"><path d="M20.536 12.468A1.32 1.32 0 0 0 20.613 10.572 1.33 1.33 0 0 0 19.705 10.152 1.33 1.33 0 0 0 19.353 9.079 1.34 1.34 0 0 0 18.419 8.657 1.36 1.36 0 0 0 17.609 8.906 1.57 1.57 0 0 0 16.171 8.481 1.56 1.56 0 0 0 16.065 7.788 1.573 1.573 0 0 0 14.024 6.911 1.58 1.58 0 0 0 13.047 8.553 1.58 1.58 0 0 0 12.157 9.095 1.572 1.572 0 0 0 10.196 11.165L10.213 11.206A1.573 1.573 0 0 0 9.137 13.311C9.271 13.647 9.516 13.915 9.827 14.09L11.804 23.076A0.25 0.25 0 0 0 12.052 23.285H18.574A0.25 0.25 0 0 0 18.821 23.076L20.811 14.056 20.832 13.926A0.3 0.3 0 0 0 20.913 13.804 1.25 1.25 0 0 0 20.536 12.468M15.584 13.66A0.647 0.647 0 0 1 16.464 12.718 0.299 0.299 0 0 0 16.886 12.301 0.65 0.65 0 1 1 18.03 12.102 0.3 0.3 0 0 0 18.349 12.487 0.64 0.64 0 0 1 18.962 12.778 0.3 0.3 0 0 0 19.374 12.867 0.653 0.653 0 0 1 20.344 13.617C20.339 13.631 20.342 13.644 20.339 13.658H15.584zM14.085 12.992A1.2 1.2 0 0 0 13.613 12.186 1.2 1.2 0 0 0 12.768 11.943L12.76 11.874A1.2 1.2 0 0 0 12.288 11.068C12.279 11.061 12.267 11.056 12.258 11.049A0.707 0.707 0 0 1 12.961 10.38C13.345 10.388 13.668 10.69 13.677 11.075A0.3 0.3 0 0 0 14.1 11.341 0.7 0.7 0 0 1 14.387 11.278 0.67 0.67 0 0 1 14.835 11.434 0.3 0.3 0 0 0 15.254 11.39 0.71 0.71 0 0 1 15.801 11.128 0.67 0.67 0 0 1 16.302 11.334 1.17 1.17 0 0 0 16.159 11.99 1.2 1.2 0 0 0 15.5 12.124 1.245 1.245 0 0 0 14.895 13.66H13.979C14.076 13.453 14.118 13.224 14.085 12.992M18.915 9.49A0.73 0.73 0 0 1 19.114 10.019 0.73 0.73 0 0 1 19.015 10.366 0.3 0.3 0 0 0 19.378 10.798 0.738 0.738 0 0 1 20.089 12.073 0.3 0.3 0 0 0 19.997 12.203 1.24 1.24 0 0 0 19.292 12.245 1.26 1.26 0 0 0 18.658 11.909 1.26 1.26 0 0 0 17.885 10.762C18.102 10.359 18.138 9.872 17.963 9.435 17.958 9.423 17.95 9.413 17.945 9.401A0.76 0.76 0 0 1 18.399 9.258 0.73 0.73 0 0 1 18.915 9.49M11.294 9.681A0.97 0.97 0 0 1 12.12 9.731 0.3 0.3 0 0 0 12.525 9.614 0.96 0.96 0 0 1 13.406 9.119C13.509 9.128 13.602 9.076 13.661 8.994S13.733 8.807 13.698 8.713A0.975 0.975 0 0 1 14.245 7.467 0.97 0.97 0 0 1 15.507 8.009 0.97 0.97 0 0 1 15.42 8.895 0.3 0.3 0 0 0 15.869 9.283 0.972 0.972 0 0 1 17.211 10.683 1.3 1.3 0 0 0 16.84 10.799C16.791 10.824 16.748 10.856 16.703 10.886A1.34 1.34 0 0 0 15.799 10.528 1.3 1.3 0 0 0 14.983 10.82 1.5 1.5 0 0 0 14.384 10.679C14.327 10.679 14.27 10.683 14.214 10.691A1.32 1.32 0 0 0 12.958 9.78C12.608 9.782 12.279 9.921 12.033 10.17A1.3 1.3 0 0 0 11.681 10.831 1.2 1.2 0 0 0 11.385 10.832 1.2 1.2 0 0 0 10.82 11.071 1 1 0 0 1 10.753 10.941 0.97 0.97 0 0 1 11.294 9.681M10.235 11.826A0.95 0.95 0 0 1 10.706 11.763C10.717 11.764 10.727 11.762 10.738 11.762 10.854 11.797 10.984 11.762 11.062 11.661A0.619 0.619 0 0 1 12.166 11.958 0.6 0.6 0 0 1 12.133 12.258 0.3 0.3 0 0 0 12.564 12.623 0.618 0.618 0 0 1 13.491 13.075 0.62 0.62 0 0 1 13.333 13.579 0.3 0.3 0 0 0 13.283 13.661H10.264C10.243 13.644 10.224 13.626 10.199 13.616A0.97 0.97 0 0 1 9.692 13.089 0.976 0.976 0 0 1 10.235 11.826M12.264 22.782L10.341 14.163H12.205L12.926 22.782zM15.024 22.782H13.428L12.707 14.163H15.049zM15.527 22.782L15.55 14.216C15.577 14.204 15.601 14.183 15.624 14.163H17.807L17.198 22.782zM18.361 22.782H17.701L18.31 14.163H20.285z" fill="#ffffff" data-fill-palette-color="accent"></path></g><g display="none" fill="#b9b4c7" data-fill-palette-color="accent"><path display="inline" d="M23.539 13.272C23.47 13.185 23.363 13.141 23.222 13.141H19.089C18.852 10.056 18.026 6.408 15.178 6.34 14.445 6.313 13.791 6.572 13.225 7.111 11.57 8.688 11.059 11.134 10.902 13.14H6.777C6.636 13.14 6.529 13.184 6.46 13.27 6.413 13.327 6.365 13.428 6.4 13.587 6.51 14.026 8.135 23.743 11.652 23.743H18.347C21.848 23.743 23.488 14.027 23.6 13.58A0.34 0.34 0 0 0 23.539 13.272M13.624 7.529C14.08 7.095 14.581 6.897 15.161 6.917 17.21 6.965 18.212 9.379 18.51 13.141H11.486C11.644 11.202 12.131 8.951 13.624 7.529M18.348 23.243H11.653C9.106 23.243 7.704 16.635 6.932 13.643H10.869A23 23 0 0 0 10.835 14.444 1.254 1.254 0 0 0 9.884 15.657 1.258 1.258 0 0 0 12.397 15.657C12.397 15.059 11.975 14.557 11.413 14.432 11.416 14.298 11.426 14.02 11.45 13.643H12.048C12.077 13.643 12.118 13.645 12.143 13.649L12.118 13.642H17.946L17.921 13.649C17.946 13.645 17.986 13.644 18.015 13.643H18.548C18.565 13.904 18.578 14.165 18.587 14.426L18.588 14.432A1.255 1.255 0 1 0 20.119 15.656C20.119 15.07 19.713 14.578 19.166 14.442L19.165 14.404A34 34 0 0 0 19.127 13.642H19.335L23.07 13.643C22.287 16.646 20.882 23.243 18.348 23.243M11.141 14.902A0.755 0.755 0 1 1 11.14 16.412 0.755 0.755 0 0 1 11.14 14.901M19.615 15.657A0.756 0.756 0 1 1 18.106 15.657 0.756 0.756 0 0 1 19.615 15.658" fill="#ffffff" data-fill-palette-color="accent"></path></g><g display="none" fill="#b9b4c7" data-fill-palette-color="accent"><path display="inline" d="M17.241 16.585H17.145V12.208A0.25 0.25 0 0 0 16.894 11.958H16.49V7.353C16.49 7.34 16.484 7.329 16.482 7.316 16.509 6.942 16.411 6.637 16.173 6.47A0.7 0.7 0 0 0 15.759 6.345C15.245 6.345 14.586 6.81 14.078 7.529 13.692 8.076 13.485 8.633 13.472 9.081L13.469 9.093V11.959H13.104A0.25 0.25 0 0 0 12.853 12.209V16.586H12.758A0.25 0.25 0 0 0 12.507 16.838V23.489C12.507 23.626 12.619 23.739 12.758 23.739H17.24A0.25 0.25 0 0 0 17.491 23.489V16.838A0.25 0.25 0 0 0 17.241 16.585M14.489 7.818C14.939 7.18 15.468 6.847 15.76 6.847 15.813 6.847 15.853 6.858 15.885 6.88 16.084 7.021 16.023 7.726 15.472 8.509 15.021 9.147 14.492 9.481 14.201 9.481A0.2 0.2 0 0 1 14.076 9.447C13.875 9.306 13.938 8.601 14.489 7.818M13.972 9.948A0.8 0.8 0 0 0 14.201 9.982C14.715 9.982 15.374 9.517 15.882 8.799 15.92 8.745 15.955 8.691 15.989 8.637V11.957H13.972zM13.355 12.459H16.644V16.585H13.355zM16.991 23.237H13.01V17.089H16.992V23.237z" fill="#ffffff" data-fill-palette-color="accent"></path></g></svg></g></svg></g></svg></g></svg></g><g></g></svg></g><defs></defs></svg><rect width="276.6692526677597" height="247.2" fill="none" stroke="none" visibility="hidden"></rect></g></svg></g></svg>